<?xml version="1.0" encoding="UTF-8"?>
<svg width="326px" height="373px" viewBox="0 0 326 373" version="1.1" xmlns="http://www.w3.org/2000/svg" xmlns:xlink="http://www.w3.org/1999/xlink">
    <title>画板@3x</title>
    <g id="画板" stroke="none" stroke-width="1" fill="none" fill-rule="evenodd">
        <g id="华院2020RGB-06" transform="translate(50.57, 56.165)" fill-rule="nonzero">
            <polygon id="路径" fill="#484545" points="112.16 209.615 112.16 209.525 112.16 209.605"></polygon>
            <polygon id="路径" fill="#484545" points="112.31 209.055 111.96 209.665 112.31 209.665"></polygon>
            <path d="M133.09,25.835 L145.09,18.895 C140.51,16.2283333 136.083333,13.3883333 131.81,10.375 L131.81,25.275 C132.260772,25.4008417 132.691645,25.5893482 133.09,25.835 L133.09,25.835 Z" id="路径" fill="#231815"></path>
            <path d="M133.09,25.835 L145.09,18.895 C140.51,16.2283333 136.083333,13.3883333 131.81,10.375 L131.81,25.275 C132.260772,25.4008417 132.691645,25.5893482 133.09,25.835 L133.09,25.835 Z" id="路径" fill="#8FAB52"></path>
            <path d="M92.43,25.355 L92.43,10.355 C88.17,13.355 83.77,16.165 79.2,18.835 L91.35,25.835 C91.6901402,25.6336063 92.0525828,25.4725207 92.43,25.355 Z" id="路径" fill="#EF8337"></path>
            <polygon id="路径" fill="#231815" opacity="0.25" points="180.93 116.885 180.93 116.835 180.93 116.835"></polygon>
            <polygon id="路径" fill="#231815" opacity="0.25" points="110.49 0.365 110.34 0.635 110.49 0.635"></polygon>
            <polygon id="路径" fill="#231815" opacity="0.25" points="43.31 116.745 43.18 116.975 43.37 116.865"></polygon>
            <path d="M124.33,4.835 C123.96,4.545 123.59,4.285 123.23,3.995 L120.17,2.225 C118.159393,1.32361093 116.007317,0.778824512 113.81,0.615 L113.81,0.615 L113.81,34.455 C114.573808,34.7263781 115.260186,35.1793877 115.81,35.775 L125.5,30.185 L125.5,30.185 C125.492473,28.2855844 126.561838,26.54593 128.26,25.695 L128.55,25.565 L128.55,7.985 C127.12,6.945 125.72,5.895 124.33,4.835 Z" id="路径" fill="#8FAB52"></path>
            <path d="M110.34,0.635 C107.829053,0.861603259 105.388312,1.58566702 103.16,2.765 L102.02,3.415 L100.97,4.025 C99.23,5.35833333 97.4633333,6.69166667 95.67,8.025 L95.67,25.405 L95.97,25.535 C97.7979437,26.3327656 98.9769451,28.1405677 98.97,30.135 C98.97,30.195 98.97,30.245 98.97,30.305 L108.43,35.775 C108.982616,35.1826937 109.66813,34.7302541 110.43,34.455 L110.43,0.625 L110.34,0.635 Z" id="路径" fill="#EF8337"></path>
            <polygon id="路径" fill="#231815" opacity="0.25" points="45.07 38.315 44.85 38.315 45.01 38.405"></polygon>
            <polygon id="路径" fill="#231815" opacity="0.25" points="179.43 38.315 179.18 38.315 179.25 38.415"></polygon>
            <polygon id="路径" fill="#231815" opacity="0.25" points="43.27 41.195 43.34 41.325 43.34 41.255"></polygon>
            <polygon id="路径" fill="#231815" opacity="0.25" points="110.43 157.505 110.5 157.635 110.5 157.515"></polygon>
            <path d="M179.17,38.315 C177.712418,36.2203387 175.840469,34.4470927 173.67,33.105 L172.67,32.515 L170.83,31.445 C163.146781,28.3505909 155.665401,24.7768959 148.43,20.745 L144.48,23.015 L135.23,28.355 C135.446108,28.9236716 135.557897,29.5266534 135.56,30.135 C135.558418,30.6330819 135.484307,31.1282785 135.34,31.605 L138.57,33.265 L148.38,38.265 L161.53,45.035 C163.329927,43.7310635 165.774525,43.7718068 167.53,45.135 L179.25,38.365 L179.17,38.315 Z" id="路径" fill="#8FAB52"></path>
            <path d="M89.21,28.465 L79.79,23.015 L75.79,20.735 C68.6264973,24.722975 61.2260455,28.2695814 53.63,31.355 L52.84,31.805 L49.56,33.705 C47.8013746,34.9725573 46.2726426,36.5317286 45.04,38.315 L44.98,38.405 L56.67,45.155 C57.5371554,44.5090917 58.5887307,44.1585666 59.67,44.155 C60.7518511,44.155 61.8045191,44.5058894 62.67,45.155 L75.88,38.355 L85.69,33.355 L89.1,31.595 C88.9753534,31.148954 88.9114438,30.6881325 88.91,30.225 C88.8999934,29.6248058 89.0017238,29.027987 89.21,28.465 Z" id="路径" fill="#EF8337"></path>
            <path d="M126.64,33.325 L118,38.325 L117.15,38.815 C117.15,38.945 117.15,39.085 117.15,39.215 C117.156996,41.36194 115.792608,43.2736931 113.76,43.965 L113.76,74.315 C114.062292,74.4197875 114.353666,74.5537526 114.63,74.715 C114.905556,74.8752142 115.166553,75.0592505 115.41,75.265 L125.58,69.395 C125.51227,69.0660072 125.478758,68.73089 125.48,68.395 C125.469551,66.3776989 126.672403,64.5517309 128.53,63.765 L128.53,34.765 C127.796179,34.4392016 127.148886,33.9460256 126.64,33.325 L126.64,33.325 Z" id="路径" fill="#8FAB52"></path>
            <path d="M159.63,47.835 L141.2,38.345 L136.93,36.145 L133.43,34.285 L133.33,34.345 C132.884406,34.6375753 132.394892,34.8570125 131.88,34.995 L131.88,63.515 C132.621648,63.7196228 133.306072,64.0926339 133.88,64.605 L146.53,57.305 L159.53,49.825 C159.498051,49.6131368 159.481341,49.3992545 159.48,49.185 C159.471103,48.7303928 159.521528,48.2765663 159.63,47.835 Z" id="路径" fill="#8FAB52"></path>
            <path d="M109.62,83.415 C109.344444,83.2547858 109.083447,83.0707495 108.84,82.865 L77.7,100.865 L45.05,119.725 L45.05,119.725 C46.5014328,121.828777 48.3659606,123.615049 50.53,124.975 L50.92,125.205 C52.56,125.845 54.18,126.565 55.81,127.205 C63.4357826,130.404256 70.8536447,134.078118 78.02,138.205 L78.02,138.205 C84.917712,142.196468 91.5635748,146.608119 97.92,151.415 C99.56,152.645 101.23,153.855 102.82,155.135 L104.11,155.885 C106.106508,156.786547 108.245491,157.331446 110.43,157.495 L110.5,157.495 L110.5,83.835 C110.195189,83.7204383 109.900775,83.5799225 109.62,83.415 Z" id="路径" fill="#7D4697"></path>
            <path d="M182.69,48.835 L182.69,47.605 C182.472805,45.4024693 181.866756,43.255904 180.9,41.265 L180.85,41.265 L169.35,47.905 C169.463063,48.312035 169.520254,48.7325539 169.52,49.155 C169.55259,51.1980689 168.338738,53.0553875 166.454417,53.8456576 C164.570096,54.6359278 162.39452,54.2001101 160.96,52.745 L148.19,60.125 L135.5,67.445 C135.552285,67.7421694 135.579049,68.0432675 135.58,68.345 C135.58244,68.8612899 135.501395,69.3745788 135.34,69.865 L151.21,79.025 L157.08,82.425 L163.08,85.875 L181.34,96.435 C180.82,90.705 180.52,84.895 180.5,79.025 C180.5,78.855 180.5,78.675 180.5,78.495 C180.515553,70.8081198 180.976324,63.1285929 181.88,55.495 C182.1,53.265 182.35,51.035 182.69,48.835 Z" id="路径" fill="#439FAD"></path>
            <path d="M182.19,104.325 C182.02,103.055 181.87,101.775 181.73,100.495 L166.34,91.615 L155.43,85.305 L144.62,79.055 L133.35,72.545 C131.48658,73.8136881 129.004635,73.6785326 127.29,72.215 L117.08,78.105 C117.143477,78.4344692 117.173629,78.7694913 117.17,79.105 L117.17,79.105 C117.173629,79.4405087 117.143477,79.7755308 117.08,80.105 L148.08,98.035 L180.89,116.835 L180.89,116.835 C181.977745,114.5101 182.586496,111.990074 182.68,109.425 L182.68,108.325 C182.5,107.005 182.37,105.655 182.19,104.325 Z" id="路径" fill="#439FAD"></path>
            <path d="M179.23,119.695 L146.49,100.835 L115.43,82.835 C115.186553,83.0407495 114.925556,83.2247858 114.65,83.385 C114.373666,83.5462474 114.082292,83.6802125 113.78,83.785 L113.78,157.475 C116.327627,157.26461 118.806853,156.543628 121.07,155.355 C122.68,154.045 124.36,152.785 126.07,151.525 C132.513217,146.627258 139.252707,142.132039 146.25,138.065 C146.33,138.065 146.41,137.955 146.49,137.915 C153.114069,134.101307 159.95578,130.678782 166.98,127.665 C169.41,126.615 171.84,125.585 174.29,124.665 L174.65,124.465 C176.463273,123.162056 178.033769,121.550944 179.29,119.705 L179.23,119.695 Z" id="路径" fill="#2640E1"></path>
            <path d="M91.02,34.225 L90.92,34.225 L87.34,36.065 L83.07,38.265 L64.57,47.835 C64.6864258,48.2722574 64.7469086,48.7225186 64.75,49.175 C64.7650212,49.374718 64.7650212,49.575282 64.75,49.775 L77.69,57.245 L90.43,64.605 C91.0065374,64.0985613 91.6903183,63.7293197 92.43,63.525 L92.43,34.915 C91.9255844,34.7632587 91.4493217,34.530194 91.02,34.225 Z" id="路径" fill="#EF8337"></path>
            <path d="M107.1,39.205 C107.1,39.075 107.1,38.935 107.1,38.805 L106.26,38.315 L97.76,33.405 C97.1940651,34.0491531 96.4754172,34.5408595 95.67,34.835 L95.67,63.695 C97.5539704,64.4689369 98.7802007,66.3082824 98.77,68.345 C98.7712417,68.68089 98.73773,69.0160072 98.67,69.345 L108.84,75.215 C109.082671,75.0036408 109.347554,74.8192288 109.63,74.665 C109.903831,74.5056473 110.191704,74.3717528 110.49,74.265 L110.49,43.955 C108.457392,43.2636931 107.093004,41.35194 107.1,39.205 Z" id="路径" fill="#EF8337"></path>
            <path d="M43.56,79.065 C43.56,84.575 43.31,90.005 42.85,95.395 L61.6,85.055 L66.9,82.135 L72.48,79.055 L88.96,69.975 C88.6917103,69.1698654 88.6298191,68.3102645 88.78,67.475 L76.01,60.095 L63.27,52.745 C61.8413878,54.2106544 59.6637689,54.6576315 57.7733147,53.8732472 C55.8828605,53.088863 54.6613454,51.2315226 54.69,49.185 C54.690388,48.7461501 54.7475285,48.3091929 54.86,47.885 L43.37,41.255 L43.37,41.325 C42.2959779,43.6148562 41.6940156,46.0975258 41.6,48.625 L41.6,51.325 C42.915101,60.5101053 43.5834123,69.7762407 43.6,79.055 L43.56,79.065 Z" id="路径" fill="#EB6D65"></path>
            <path d="M180.84,41.295 L180.89,41.295 C180.89,41.295 180.89,41.295 180.89,41.295 L180.84,41.295 Z" id="路径" fill="#231815"></path>
            <line x1="75.82" y1="20.735" x2="79.79" y2="23.015" id="路径" fill="#EF8337"></line>
            <polygon id="路径" fill="#231815" points="45.01 119.695 45.02 119.705 45.05 119.695"></polygon>
            <polygon id="路径" fill="#231815" points="113.75 157.505 113.75 157.505 113.75 157.445"></polygon>
            <path d="M107.1,79.065 L107.1,79.065 C107.099664,78.7291542 107.133167,78.3941289 107.2,78.065 L96.98,72.175 C95.2879937,73.6241973 92.8413185,73.7791534 90.98,72.555 L79.26,79.015 L79.26,79.015 L68.52,84.945 L58.43,90.565 L42.43,99.355 C42.1966667,101.541667 41.9366667,103.721667 41.65,105.895 C41.65,106.165 41.58,106.445 41.54,106.705 L41.54,110.555 C41.7666369,112.700525 42.3514104,114.792864 43.27,116.745 L43.33,116.865 L76.02,97.995 L107.16,79.995 C107.093167,79.6658711 107.059664,79.3308458 107.06,78.995 L107.1,79.065 Z" id="路径" fill="#EB6D65"></path>
            <path d="M99.91,254.365 C99.91,257.255 97.44,258.695 91.91,258.695 L81.16,258.695 L81.16,243.445 L83.93,243.445 L83.93,256.365 L92.43,256.365 C93.4129297,256.411681 94.3977688,256.331012 95.36,256.125 C96.54,255.815 97.13,255.125 97.13,254.195 L97.13,243.445 L99.9,243.445 L99.91,254.365 Z" id="路径" fill="#484545"></path>
            <path d="M118.15,258.645 L115.49,258.645 L115.49,250.045 C115.49,249.505 115.04,249.155 114.14,248.985 C113.898797,248.943162 113.654758,248.919761 113.41,248.915 L104.41,248.915 L104.41,258.655 L101.78,258.655 L101.78,246.655 L112.13,246.655 C116.13,246.655 118.13,247.781667 118.13,250.035 L118.15,258.645 Z" id="路径" fill="#484545"></path>
            <path d="M123.27,245.045 C123.268619,245.452692 123.056884,245.83079 122.71,246.045 C122.002604,246.484113 121.107396,246.484113 120.4,246.045 C120.056446,245.817112 119.849908,245.432264 119.849908,245.02 C119.849908,244.607736 120.056446,244.222888 120.4,243.995 C121.110623,243.567352 121.999377,243.567352 122.71,243.995 C123.072404,244.218361 123.286403,244.619609 123.27,245.045 L123.27,245.045 Z M122.9,258.645 L120.28,258.645 L120.28,247.645 C120.28,247.645 122.9,247.645 122.9,247.645 L122.9,258.645 Z" id="形状" fill="#484545"></path>
            <path d="M143.94004,254.545 C143.946765,255.966443 143.093161,257.2508 141.78,257.795 C140.506319,258.396888 139.108072,258.688189 137.7,258.645 L124.99,258.645 C124.99,258.645 124.99,243.455 124.99,243.445 L137.76,243.445 C141.88,243.445 143.94004,244.735 143.94004,247.315 L143.94004,254.545 Z M141.19,254.545 L141.19,247.345 C141.19,246.751667 140.74,246.311667 139.84,246.025 C139.139309,245.816366 138.411027,245.715216 137.68,245.725 L127.76,245.725 L127.76,256.385 L137.63,256.385 C138.387468,256.402502 139.142164,256.287437 139.86,256.045 C140.75,255.705 141.19,255.215 141.19,254.525 L141.19,254.545 Z" id="形状" fill="#484545"></path>
            <path d="M162.06,245.705 L154.94,245.705 L154.94,258.645 L152.16,258.645 L152.16,245.705 L145.07,245.705 L145.07,243.445 L162.07,243.445 C162.07,243.445 162.08,245.715 162.06,245.705 Z" id="路径" fill="#484545"></path>
            <path d="M163.99,257.275 C163.986722,257.682191 163.775466,258.059434 163.43,258.275 C163.087658,258.505268 162.68248,258.624027 162.27,258.615 C161.853634,258.627728 161.44289,258.516339 161.09,258.295 C160.751108,258.074492 160.544746,257.699288 160.54,257.295 C160.535339,256.888295 160.74403,256.508858 161.09,256.295 C161.436934,256.07692 161.840324,255.96564 162.25,255.975 C162.666153,255.964063 163.076389,256.075313 163.43,256.295 C163.772313,256.504077 163.983662,256.873937 163.99,257.275 Z" id="路径" fill="#484545"></path>
            <path d="M182.21,258.645 L171.21,258.645 C169.855503,258.71374 168.499856,258.534117 167.21,258.115 C165.884178,257.68351 165.011552,256.417589 165.08,255.025 L165.08,250.305 C165.08,247.885 166.953333,246.675 170.7,246.675 L182.22,246.675 C182.22,246.675 182.22,248.905 182.22,248.905 L170.88,248.905 C168.77,248.905 167.71,249.345 167.71,250.235 L167.71,254.915 C167.71,255.915 168.91,256.435 171.32,256.435 L182.21,256.435 L182.21,258.645 Z" id="路径" fill="#484545"></path>
            <path d="M199.88,254.925 C199.91111,256.246247 199.111578,257.445545 197.88,257.925 C196.678838,258.455117 195.371725,258.701484 194.06,258.645 L189.68,258.645 C188.334562,258.664571 186.998662,258.416427 185.75,257.915 C184.457145,257.485219 183.583499,256.277415 183.58,254.915 L183.58,250.515 C183.593725,249.14744 184.454548,247.931926 185.74,247.465 C186.970165,246.89696 188.315667,246.623066 189.67,246.665 L194.06,246.665 C197.96,246.665 199.91,247.938333 199.91,250.485 L199.88,254.925 Z M197.21,254.925 L197.21,250.325 C197.21,249.375 196.12,248.905 193.96,248.905 L189.68,248.905 C188.952736,248.891431 188.227678,248.98923 187.53,249.195 C186.63,249.485 186.18,249.935 186.18,250.525 L186.18,254.925 C186.18,255.495 186.64,255.925 187.56,256.175 C188.253947,256.362905 188.971229,256.45046 189.69,256.435 L193.97,256.435 C194.648654,256.44605 195.324456,256.34468 195.97,256.135 C196.78,255.835 197.21,255.465 197.21,254.925 Z" id="形状" fill="#484545"></path>
            <path d="M224.27,258.645 L221.62,258.645 L221.62,250.285 C221.62,249.335 220.5,248.865 218.26,248.865 L214.26,248.865 L214.26,258.645 L211.61,258.645 C211.61,258.645 211.61,248.865 211.61,248.865 L204.23,248.865 L204.23,258.645 C204.23,258.645 201.61,258.645 201.6,258.645 L201.6,246.645 L218.71,246.645 C222.403333,246.645 224.246667,247.948333 224.24,250.555 L224.27,258.645 Z" id="路径" fill="#484545"></path>
            <path d="M25.33,246.915 L19.7,257.835 C19.3801398,258.406223 18.7511923,258.732489 18.1,258.665 C17.4689405,258.723613 16.8622034,258.406544 16.55,257.855 L12.68,250.595 L8.74,257.835 C8.36343221,258.350503 7.76339378,258.655265 7.125,258.655265 C6.48660622,258.655265 5.88656779,258.350503 5.51,257.835 L0,246.905 L2.9,246.905 L7.23,255.285 L11.16,248.025 C11.4469011,247.456943 12.0448817,247.114678 12.68,247.155 C13.3041363,247.117148 13.890571,247.455627 14.17,248.015 L18.1,255.285 L22.43,246.915 L25.33,246.915 Z" id="路径" fill="#484545"></path>
            <path d="M51.07,246.915 L45.43,257.835 C45.07095,258.349994 44.4828025,258.656922 43.855,258.656922 C43.2271975,258.656922 42.63905,258.349994 42.28,257.835 L38.43,250.595 L34.5,257.835 C34.1712097,258.402063 33.5426322,258.726112 32.89,258.665 C32.2222817,258.736757 31.5776916,258.396666 31.26,257.805 L25.75,246.875 L28.65,246.875 L32.98,255.255 L36.91,247.995 C37.1969011,247.426943 37.7948817,247.084678 38.43,247.125 C39.0541363,247.087148 39.640571,247.425627 39.92,247.985 L43.86,255.255 L48.18,246.875 L51.07,246.915 Z" id="路径" fill="#484545"></path>
            <path d="M76.83,246.915 L71.2,257.835 C70.84095,258.349994 70.2528025,258.656922 69.625,258.656922 C68.9971975,258.656922 68.40905,258.349994 68.05,257.835 L64.18,250.575 L60.25,257.835 C59.9212097,258.402063 59.2926322,258.726112 58.64,258.665 C57.9722817,258.736757 57.3276916,258.396666 57.01,257.805 L51.52,246.885 L54.43,246.885 L58.76,255.265 L62.69,248.005 C63.0064056,247.478469 63.5757142,247.156388 64.19,247.156388 C64.8042858,247.156388 65.3735944,247.478469 65.69,248.005 L69.62,255.275 L73.94,246.895 L76.83,246.915 Z" id="路径" fill="#484545"></path>
            <path d="M79.3400011,257.345 C79.3348662,257.751697 79.1240746,258.12811 78.78,258.345 C78.0677761,258.792439 77.1622239,258.792439 76.45,258.345 C76.1107624,258.126012 75.9070514,257.748769 75.91,257.345 C75.9012082,256.939799 76.1063603,256.559888 76.45,256.345 C77.168029,255.918189 78.061971,255.918189 78.78,256.345 C79.1283299,256.557822 79.3405584,256.936801 79.3400011,257.345 Z" id="路径" fill="#484545"></path>
            <path d="M0.43,202.015 L0.43,197.355 C2.99889976,197.047152 5.2603152,195.515946 6.5,193.245 C7.22342422,191.497426 7.78250551,189.686271 8.17,187.835 L14.7,187.835 C14.0115532,190.872437 12.7043504,193.735348 10.86,196.245 L10.86,213.535 L4.43,213.535 L4.43,200.835 C3.2301684,201.587845 1.84633779,201.996075 0.43,202.015 Z M0.43,222.015 L0.43,217.275 L20.31,217.275 L20.31,213.095 L26.74,213.095 L26.74,217.275 L46.53,217.275 L46.53,222.015 L26.74,222.015 L26.74,230.935 L20.31,230.935 L20.31,222.015 L0.43,222.015 Z M13.35,198.295 L23.76,196.295 L23.76,187.835 L30.17,187.835 L30.17,195.365 L35.81,193.835 C37.54,193.505 38.02,193.185 38.64,192.525 C39.2542979,191.913168 39.6750901,191.13418 39.85,190.285 L46.53,190.285 C46.3094677,192.02289 45.6899932,193.68623 44.72,195.145 C43.72,196.505 42.13,197.395 39.37,197.945 L30.18,200.115 L30.18,207.595 L46.53,207.595 L46.53,212.265 L29.27,212.265 C28.1483885,212.341323 27.0233917,212.177688 25.97,211.785 C24.5,211.065 23.77,209.555 23.77,207.275 L23.77,201.075 L13.36,203.165 L13.35,198.295 Z" id="形状" fill="#484545"></path>
            <path d="M59.32,230.645 L59.32,187.835 L69.8,187.835 C71.0615023,187.746386 72.303329,188.184464 73.23,189.045 C73.99346,189.772634 74.4268811,190.780338 74.43,191.835 L74.43,203.515 C74.4837999,204.639697 74.0501259,205.732993 73.24,206.515 C73.7805015,206.767279 74.1801918,207.24764 74.33,207.825 C74.4012676,208.274744 74.434718,208.729669 74.43,209.185 L74.43,223.355 C74.4744108,224.544827 74.0043986,225.696175 73.14,226.515 C72.0493732,227.293714 70.7400456,227.706817 69.4,227.695 L66.63,227.695 L66.63,223.005 C67.0424763,223.060333 67.4568925,222.917904 67.7482027,222.620689 C68.0395129,222.323474 68.1735983,221.906283 68.11,221.495 L68.11,210.495 C68.11,209.495 67.66,208.955 66.75,208.955 L66.63,208.955 L66.63,204.215 L66.63,204.215 C67.63,204.215 68.11,203.765 68.11,202.855 L68.11,192.515 L65.68,192.515 L65.68,230.645 L59.32,230.645 Z M75.58,230.745 L75.58,226.205 C77.1186605,226.142132 78.553549,225.411909 79.51,224.205 C80.53,223.038333 81.2266667,221.021667 81.6,218.155 C81.7,217.288333 81.81,216.038333 81.93,214.405 L75.93,214.405 L75.93,209.745 L105.74,209.745 L105.74,214.405 L100.17,214.405 L100.17,224.105 C100.110134,224.657729 100.256105,225.213131 100.58,225.665 C100.991226,226.056258 101.542747,226.265332 102.11,226.245 L105.95,226.245 L105.95,230.835 L98.72,230.835 C97.381897,230.765715 96.1033478,230.259916 95.08,229.395 C94.2153679,228.459874 93.7615418,227.217255 93.82,225.945 L93.82,214.365 L88.18,214.365 C87.9576009,216.889126 87.5802223,219.397191 87.05,221.875 C86.2169927,225.121674 84.0326467,227.855747 81.05,229.385 C79.3154102,230.140624 77.4664882,230.60032 75.58,230.745 Z M75.9,198.535 L75.9,189.765 L86.79,189.765 L86.79,188.005 L93.96,188.005 L93.96,189.765 L100.83,189.765 C102.83,189.765 103.54,189.955 104.43,190.765 C105.49,191.765 105.62,192.765 105.62,194.665 L105.62,198.505 L99.36,198.505 L99.36,196.125 C99.36,195.415 99.36,195.125 99.15,194.875 C98.94,194.625 98.46,194.475 97.69,194.475 L82.26,194.475 L82.26,198.475 L75.9,198.535 Z M76.83,206.045 L76.83,201.305 L104.77,201.305 L104.77,206.045 L76.83,206.045 Z" id="形状" fill="#484545"></path>
            <path d="M118.65,193.115 L118.65,188.485 L129.08,188.485 L129.08,193.115 L118.65,193.115 Z M118.65,203.385 L118.65,198.695 L123.43,198.695 C124.814493,198.581227 126.18391,199.048568 127.21,199.985 C128.044175,201.040224 128.4415,202.375379 128.32,203.715 L128.32,226.205 L132.73,226.205 L132.73,230.835 L121.94,230.835 L121.94,205.635 C121.94,204.541667 121.75,203.875 121.37,203.635 C120.919753,203.428356 120.423551,203.34221 119.93,203.385 L118.65,203.385 Z M132.08,209.045 L132.08,204.385 L145.28,204.385 L145.28,188.075 L151.71,188.075 L151.71,204.385 L164.92,204.385 L164.92,209.045 L151.71,209.045 L151.71,230.835 L145.28,230.835 L145.28,209.045 L132.08,209.045 Z" id="形状" fill="#484545"></path>
            <path d="M177.6,198.635 L177.6,193.925 C178.093634,193.650294 178.512497,193.258898 178.82,192.785 C179.549327,191.276151 179.951451,189.630168 180,187.955 L186.53,187.955 L186.3,189.685 L200.68,189.685 L200.68,194.205 L194.97,194.205 L194.97,198.635 L188.59,198.635 L188.59,194.205 L185.27,194.205 C184.486255,195.531864 183.346541,196.612687 181.98,197.325 C180.604592,198.00623 179.123579,198.449181 177.6,198.635 L177.6,198.635 Z M177.6,224.575 L177.6,220.575 L186,220.575 L186.1,218.835 L178.78,218.835 L178.78,199.165 L217.59,199.165 C218.769091,199.049741 219.957903,199.242707 221.04,199.725 C222.283151,200.475657 223.042101,201.822792 223.04,203.275 L223.04,218.835 L216.87,218.835 L216.87,220.575 L224.25,220.575 L224.25,224.575 L216.87,224.575 L216.87,230.835 L210.53,230.835 L210.53,224.565 L192.1,224.565 C191.237634,226.386851 189.746076,227.835793 187.9,228.645 C184.647403,230.055629 181.145145,230.800284 177.6,230.835 L177.6,226.535 C179.332804,226.478537 181.055203,226.243969 182.74,225.835 C183.450796,225.645015 184.064524,225.195423 184.46,224.575 L177.6,224.575 Z M217.43,213.105 L184.43,213.105 C184.43,213.275 184.43,214.995 184.43,214.995 L217.43,214.995 C217.43,214.995 217.43,213.835 217.43,213.105 Z M184.43,204.635 L217.43,204.635 C217.4444,204.356961 217.393009,204.079445 217.28,203.825 C217.123008,203.591628 216.918558,203.393993 216.68,203.245 C216.04009,203.014514 215.356955,202.929123 214.68,202.995 L184.43,202.995 L184.43,204.635 Z M184.43,209.705 L217.43,209.705 L217.43,207.965 L184.43,207.965 L184.43,209.705 Z M192.67,220.615 L210.57,220.615 L210.57,218.835 L192.63,218.835 L192.67,220.615 Z M201.2,198.615 L201.2,193.905 C201.719932,193.627714 202.150066,193.207986 202.44,192.695 C203.167442,191.214293 203.540602,189.584713 203.53,187.935 L210.11,187.935 L209.91,189.665 L224.31,189.665 L224.31,194.185 L218.43,194.185 L218.43,198.615 L212.07,198.615 L212.07,194.185 L208.75,194.185 C208.014707,195.537717 206.87001,196.622904 205.48,197.285 C204.131459,197.987642 202.668668,198.444765 201.16,198.635 L201.2,198.615 Z" id="形状" fill="#484545"></path>
        </g>
    </g>
</svg>